<svg width="131" height="44" viewBox="0 0 131 44" fill="none" xmlns="http://www.w3.org/2000/svg">
<g id="Google">
<path id="Vector" fill-rule="evenodd" clip-rule="evenodd" d="M32.3042 15.7374H17.0782V20.2105H27.8772C27.3435 26.4832 22.072 29.1584 17.0966 29.1584C10.7306 29.1584 5.17564 24.1997 5.17564 17.2493C5.17564 10.4785 10.4712 5.26447 17.1103 5.26447C22.233 5.26447 25.2516 8.49722 25.2516 8.49722L28.4145 5.25387C28.4145 5.25387 24.3545 0.778687 16.9487 0.778687C7.51884 0.778182 0.222656 8.6582 0.222656 17.1695C0.222656 25.5093 7.08507 33.6421 17.1893 33.6421C26.0753 33.6416 32.5799 27.6152 32.5799 18.7031C32.5799 16.8228 32.3042 15.7363 32.3042 15.7363V15.7374Z" fill="#565656"/>
<path id="Vector_2" fill-rule="evenodd" clip-rule="evenodd" d="M44.839 16.6541C47.9117 16.6541 50.8232 19.1132 50.8232 23.0756C50.8232 26.9548 47.9239 29.4836 44.8253 29.4836C41.4203 29.4836 38.7336 26.7843 38.7336 23.0454C38.7336 19.3862 41.3862 16.6541 44.839 16.6541ZM44.7769 12.5054C38.5292 12.5054 34.0518 17.3409 34.0518 22.9813C34.0518 28.7039 38.3951 33.6298 44.8503 33.6298C50.6942 33.6298 55.4826 29.2076 55.4826 23.1039C55.4826 16.108 49.9128 12.5054 44.7769 12.5054Z" fill="#565656"/>
<path id="Vector_3" fill-rule="evenodd" clip-rule="evenodd" d="M68.1647 16.6541C71.2378 16.6541 74.1494 19.1132 74.1494 23.0756C74.1494 26.9548 71.2495 29.4836 68.1509 29.4836C64.7465 29.4836 62.0603 26.7843 62.0603 23.0454C62.0603 19.3862 64.7129 16.6541 68.1647 16.6541ZM68.103 12.5054C61.8559 12.5054 57.3779 17.3409 57.3779 22.9813C57.3779 28.7039 61.7208 33.6298 68.1764 33.6298C74.0204 33.6298 78.8082 29.2076 78.8082 23.1039C78.8082 16.108 73.239 12.5054 68.103 12.5054Z" fill="#565656"/>
<path id="Vector_4" fill-rule="evenodd" clip-rule="evenodd" d="M91.3971 16.6585C94.2087 16.6585 97.0958 19.0349 97.0958 23.0938C97.0958 27.2197 94.2143 29.4937 91.3349 29.4937C88.2781 29.4937 85.4333 27.0361 85.4333 23.1331C85.4333 19.0778 88.3877 16.6585 91.3971 16.6585ZM90.9816 12.5179C85.2473 12.5179 80.7393 17.4907 80.7393 23.0721C80.7393 29.4291 85.9655 33.6454 90.8828 33.6454C93.9238 33.6454 95.5406 32.4504 96.7349 31.0793V33.1614C96.7349 36.806 94.4992 38.9886 91.1259 38.9886C87.8672 38.988 86.2331 36.5895 85.6652 35.2279L81.5645 36.9251C83.0193 39.9696 85.9476 43.1453 91.16 43.1453C96.8618 43.1453 101.207 39.5896 101.207 32.133V13.1528H96.7349V14.9423C95.3597 13.4747 93.4783 12.5179 90.9816 12.5179Z" fill="#565656"/>
<path id="Vector_5" fill-rule="evenodd" clip-rule="evenodd" d="M121.283 16.5493C123.233 16.5493 124.635 17.5748 125.231 18.8051L115.678 22.7585C115.266 19.6978 118.195 16.5493 121.283 16.5493ZM121.097 12.4865C115.687 12.4865 111.146 16.7477 111.146 23.035C111.146 29.6883 116.208 33.6341 121.616 33.6341C126.13 33.6341 128.901 31.1891 130.555 28.9984L126.866 26.5691C125.909 28.0396 124.309 29.4763 121.639 29.4763C118.64 29.4763 117.261 27.8503 116.406 26.2759L130.712 20.3988L129.97 18.6764C128.587 15.3039 125.363 12.487 121.097 12.487L121.097 12.4865Z" fill="#565656"/>
<path id="Vector_6" fill-rule="evenodd" clip-rule="evenodd" d="M104.325 33.003H109.024V1.87H104.325V33.003Z" fill="#565656"/>
</g>
</svg>
