<svg width="170" height="34" viewBox="0 0 170 34" fill="none" xmlns="http://www.w3.org/2000/svg">
<g id="Group 21245">
<g id="&#229;&#189;&#162;&#231;&#138;&#182;_3_3_">
<g id="&#229;&#189;&#162;&#231;&#138;&#182;_3">
<g id="Group">
<path id="Vector" fill-rule="evenodd" clip-rule="evenodd" d="M61.1825 23.5156L56.9808 7.43375L54.1026 7.42381L49.6496 23.3139L45.4248 7.42602L42.4238 7.43412L47.9876 26.703L51.1938 26.671L55.3634 11.538L59.5518 26.6872L62.7535 26.7203L68.1449 7.42602L65.2118 7.44222L61.1825 23.5156ZM69.416 26.7026L72.0194 26.7236L72.0356 12.9318L69.3585 12.9483L69.416 26.7026ZM70.8256 6.35608C70.3529 6.35608 69.9513 6.51802 69.6205 6.84302C69.29 7.16764 69.1246 7.56699 69.1246 8.04105C69.1246 8.52173 69.2885 8.9207 69.6164 9.23797C69.9443 9.55486 70.3478 9.71349 70.8253 9.71349C71.3076 9.71349 71.7158 9.54897 72.0507 9.21993C72.3856 8.89089 72.5533 8.49817 72.5533 8.04105C72.5533 7.56956 72.3845 7.17059 72.0478 6.84449C71.7117 6.51876 71.3039 6.35608 70.8256 6.35608ZM85.8285 14.0452C84.9917 13.0256 83.8297 12.5969 82.2495 12.5969C80.1173 12.5969 78.8042 13.6447 77.8286 15.1074L77.8127 12.9495L75.1725 12.9609L75.1611 26.7155L77.847 26.7387L77.8816 19.0636C77.8894 17.4364 78.0389 16.9271 78.8491 15.9962C79.5094 15.2373 80.4264 14.8361 81.4149 14.8357C83.473 14.8166 84.3396 16.3573 84.3396 19.0636V26.7387H86.9913L86.968 18.509C86.9684 16.6444 86.6652 15.0643 85.8285 14.0452ZM99.7101 14.1512C98.8447 13.0919 97.5739 12.5567 95.8879 12.5567C93.9061 12.5567 92.3259 13.2608 91.148 14.6686C89.9686 16.0765 89.3791 17.9322 89.3791 20.2362C89.3791 22.3931 89.9122 24.106 90.9803 25.3758C92.0473 26.646 93.4857 27.2809 95.2922 27.2809C97.225 27.2809 98.6969 26.6176 99.7101 25.2941V26.964H102.477V6.36528H99.7101V14.1512ZM99.7101 20.5679C99.7101 21.8377 99.3579 22.8796 98.6549 23.6945C97.9512 24.5083 97.043 24.9161 95.9288 24.9161C94.7988 24.9161 93.8943 24.4947 93.2157 23.6526C92.5385 22.8112 92.1995 21.6367 92.1995 20.1306C92.1995 18.4766 92.5547 17.1946 93.2661 16.2863C93.978 15.3768 94.944 14.9226 96.1668 14.9226C97.1852 14.9226 98.0315 15.2748 98.7028 15.9789C99.3741 16.6834 99.7105 17.5469 99.7105 18.5693V20.5679H99.7101ZM111.81 12.5244C109.603 12.5244 107.849 13.188 106.549 14.5148C105.249 15.8416 104.599 17.6687 104.599 19.9952C104.599 22.1395 105.223 23.8682 106.473 25.1811C107.723 26.4936 109.396 27.1506 111.492 27.1506C113.639 27.1506 115.352 26.4759 116.629 25.1263C117.906 23.777 118.544 21.9959 118.544 19.7854C118.544 17.5314 117.95 15.7581 116.762 14.4644C115.575 13.171 113.923 12.5244 111.81 12.5244ZM114.667 23.5363C113.962 24.3795 112.956 24.8009 111.652 24.8009C110.364 24.8009 109.337 24.371 108.57 23.5109C107.803 22.6507 107.418 21.4527 107.418 19.9168C107.418 18.3201 107.799 17.0813 108.56 16.1983C109.322 15.3157 110.352 14.874 111.652 14.874C112.954 14.874 113.959 15.3002 114.665 16.1534C115.372 17.0066 115.725 18.2436 115.725 19.8634C115.725 21.4685 115.373 22.693 114.667 23.5363ZM133.639 24.2109L133.731 24.5547L130.566 12.9075H128.066L124.838 24.0615L121.919 12.9075H119.051L123.32 26.7358H126.01L129.25 16.0794L132.151 26.7431L135.015 26.7269L139.068 12.9071H136.33L133.639 24.2109ZM147.574 20.4136C147.254 20.0879 146.88 19.8034 146.454 19.559C146.027 19.315 145.528 19.0699 144.957 18.824C144.558 18.6477 144.209 18.488 143.912 18.3466C143.614 18.2049 143.366 18.05 143.168 17.8833C142.97 17.7158 142.823 17.5325 142.728 17.3315C142.631 17.131 142.582 16.8733 142.582 16.5579C142.582 16.3179 142.631 16.1008 142.726 15.9061C142.82 15.7117 142.959 15.5409 143.142 15.3941C143.323 15.2476 143.546 15.132 143.808 15.0485C144.07 14.9646 144.368 14.9226 144.699 14.9226C145.792 14.9226 146.902 15.2491 148.026 15.9016V13.2708C147.061 12.7949 146.038 12.5571 144.958 12.5571C144.351 12.5571 143.754 12.6462 143.169 12.8239C142.582 13.0014 142.059 13.2664 141.598 13.6193C141.137 13.9715 140.769 14.4095 140.492 14.9329C140.214 15.4567 140.076 16.0603 140.076 16.7441C140.076 17.3014 140.15 17.7894 140.299 18.2083C140.447 18.6275 140.666 19 140.957 19.3268C141.248 19.6529 141.602 19.9418 142.022 20.1928C142.442 20.4446 142.928 20.6934 143.481 20.9403C143.825 21.0905 144.168 21.2444 144.512 21.403C144.855 21.562 145.139 21.7291 145.362 21.9047C145.587 22.0806 145.76 22.276 145.885 22.4913C146.009 22.7059 146.072 22.9691 146.072 23.2808C146.072 24.371 145.312 24.9168 143.792 24.9168C142.588 24.9168 141.341 24.4796 140.053 23.6058V26.3626C141.091 26.9746 142.255 27.2812 143.545 27.2812C144.204 27.2812 144.831 27.1988 145.427 27.0343C146.022 26.8686 146.554 26.6128 147.021 26.2658C147.488 25.9198 147.865 25.4774 148.15 24.9408C148.436 24.4034 148.579 23.7799 148.579 23.0688C148.579 22.4899 148.491 21.9838 148.317 21.551C148.141 21.1185 147.893 20.7397 147.574 20.4136ZM169.749 19.8156C169.583 19.2863 169.344 18.7887 169.031 18.3242C168.719 17.8582 168.337 17.4368 167.885 17.0588C167.432 16.6812 166.976 16.4464 166.514 16.3547C167.264 16.0555 167.896 15.527 168.408 14.7684C168.921 14.0102 169.177 13.1688 169.177 12.2446C169.177 11.5254 169.037 10.8526 168.755 10.2258C168.474 9.5994 168.083 9.05836 167.582 8.60417C167.08 8.14962 166.481 7.79076 165.784 7.52723C165.088 7.26407 164.341 7.13268 163.541 7.13268C162.749 7.13268 162.004 7.26224 161.309 7.51988C160.613 7.77825 160.014 8.13526 159.511 8.59018C159.01 9.04584 158.616 9.58505 158.332 10.2082C158.049 10.8309 157.907 11.5104 157.907 12.245C157.907 13.1732 158.162 14.0157 158.673 14.7717C159.184 15.5281 159.824 16.0566 160.595 16.3577C160.126 16.4471 159.661 16.6823 159.2 17.0632C158.74 17.4438 158.355 17.866 158.044 18.3286C157.734 18.7913 157.496 19.2848 157.332 19.8097C157.168 20.3342 157.086 20.8649 157.086 21.4004C157.086 22.2672 157.245 23.0611 157.563 23.7814C157.882 24.5017 158.331 25.1204 158.909 25.6371C159.487 26.1535 160.167 26.5551 160.949 26.841C161.731 27.1255 162.596 27.2676 163.541 27.2676C164.492 27.2676 165.361 27.1255 166.148 26.841C166.935 26.5554 167.616 26.1539 168.189 25.6371C168.764 25.1204 169.208 24.4995 169.524 23.7755C169.839 23.0526 169.997 22.2606 169.997 21.4004C169.997 20.8734 169.915 20.3445 169.749 19.8156ZM160.92 11.2626C161.057 10.906 161.252 10.5987 161.502 10.3407C161.753 10.0823 162.052 9.87691 162.4 9.72527C162.748 9.57326 163.132 9.49745 163.555 9.49745C163.949 9.49745 164.318 9.57106 164.664 9.71828C165.01 9.8655 165.313 10.0687 165.573 10.3289C165.833 10.5887 166.038 10.8953 166.187 11.2483C166.335 11.6009 166.41 11.9907 166.41 12.4169C166.41 12.8232 166.332 13.2038 166.178 13.5579C166.024 13.9119 165.817 14.2192 165.56 14.4798C165.304 14.7412 165.002 14.9469 164.658 15.0967C164.314 15.2472 163.946 15.3223 163.555 15.3223C163.16 15.3223 162.795 15.2502 162.456 15.1048C162.119 14.9598 161.818 14.7551 161.554 14.4909C161.289 14.2266 161.083 13.9208 160.935 13.5733C160.787 13.2259 160.713 12.8405 160.713 12.4169C160.713 12.0035 160.782 11.6186 160.92 11.2626ZM166.817 22.7103C166.639 23.159 166.394 23.5351 166.084 23.841C165.773 24.1465 165.404 24.3854 164.975 24.5543C164.546 24.7247 164.072 24.8086 163.555 24.8086C163.012 24.8086 162.525 24.7262 162.096 24.5628C161.666 24.3982 161.299 24.1623 160.995 23.8546C160.693 23.548 160.458 23.1734 160.289 22.7313C160.121 22.2896 160.037 21.7843 160.037 21.2149C160.037 20.6834 160.128 20.1972 160.309 19.7581C160.49 19.3187 160.738 18.9422 161.051 18.6293C161.364 18.3161 161.735 18.0717 162.163 17.8969C162.591 17.7224 163.054 17.6348 163.555 17.6348C164.09 17.6348 164.572 17.7276 165.001 17.9134C165.429 18.0997 165.798 18.3558 166.11 18.6845C166.422 19.0121 166.662 19.3927 166.832 19.8259C167.001 20.2594 167.085 20.7221 167.085 21.2153C167.085 21.7644 166.996 22.2624 166.817 22.7103Z" fill="#565656"/>
</g>
</g>
</g>
<g id="&#229;&#189;&#162;&#231;&#138;&#182;_3_2_">
<g id="&#229;&#189;&#162;&#231;&#138;&#182;_3_1_">
<g id="Group_2">
<path id="Vector_2" fill-rule="evenodd" clip-rule="evenodd" d="M0.539852 17.7035L0.54059 28.6767L13.6986 30.4843L13.6883 17.7881L0.539852 17.7035ZM32.7388 0.862671L15.284 3.40742V16.3038L32.7388 16.1654V0.862671ZM0.530273 5.43283L0.542432 16.4013L13.7001 16.3266L13.6946 3.64187L0.530273 5.43283ZM15.2597 17.8798L15.284 30.6804L32.7388 33.142L32.7428 17.9081L15.2597 17.8798Z" fill="#565656"/>
</g>
</g>
</g>
</g>
</svg>
