<svg width="128" height="56" viewBox="0 0 128 56" fill="none" xmlns="http://www.w3.org/2000/svg">
<g id="Group">
<path id="Vector" fill-rule="evenodd" clip-rule="evenodd" d="M81.6996 19.9462C77.8127 19.8951 76.3549 23.4092 76.3549 27.1983C76.3549 30.6235 77.6375 34.5954 81.6996 34.5954C85.9376 34.5485 86.9835 30.3007 86.9835 27.1983C86.9835 23.273 85.2505 19.994 81.6996 19.9462ZM105.656 19.3966C102.319 19.3966 100.313 21.4515 99.5886 24.6916H111.263C110.903 21.6389 108.622 19.3966 105.656 19.3966ZM127.1 17.5088C127.1 13.6427 123.976 10.52 120.112 10.52C118.115 10.52 116.323 11.3529 115.052 12.6938C112.095 10.6389 108.514 9.43525 104.638 9.43525C100.723 9.43525 97.1134 10.667 94.1364 12.762C92.7963 11.5192 91.0157 10.7646 89.0487 10.7646C87.5897 10.7646 86.2286 11.1868 85.0753 11.9099C82.3442 7.03713 77.1379 3.7479 71.1582 3.7479C65.6881 3.7479 60.8714 6.48948 57.9859 10.6673C55.5781 8.19322 52.2112 6.65527 48.4826 6.65527C46.0163 6.65527 43.7171 7.33085 41.7392 8.5038C41.6917 3.79681 37.8731 0 33.1567 0C28.4096 0 24.5645 3.84655 24.5645 8.58282L24.5844 8.91606C23.6642 8.77928 22.7248 8.70081 21.7654 8.70081C18.9666 8.70081 16.324 9.31671 13.9458 10.4131C12.6057 9.69885 11.0879 9.28687 9.46315 9.28687C4.24748 9.28687 0 13.525 0 18.752C0 21.5212 1.20389 23.9966 3.09304 25.73C3.04358 26.2978 3.01402 26.8753 3.01402 27.4519C3.01402 37.8067 11.4114 46.1931 21.7657 46.1931C25.7872 46.1931 29.5171 44.921 32.5687 42.7677C35.3197 46.5272 39.7539 48.9828 44.764 48.9828C44.8909 48.9828 45.0088 48.9734 45.1254 48.962C46.5744 53.0634 50.4599 56 55.0492 56C59.6896 56 63.6323 52.986 65.0213 48.8065C66.6179 51.8307 69.7775 53.8862 73.4276 53.8862C77.989 53.8862 81.7966 50.6666 82.7161 46.3802C83.3721 46.4669 84.046 46.5275 84.7224 46.5275C88.4424 46.5275 91.819 45.1158 94.3903 42.8168C97.3087 44.8033 100.841 45.9688 104.638 45.9688C114.729 45.9688 122.901 37.786 122.901 27.6965C122.901 26.4528 122.783 25.2301 122.538 24.0558C125.199 23.0666 127.1 20.5134 127.1 17.5088ZM114.641 28.5177H99.5883C99.5883 32.0313 101.868 34.5952 105.743 34.5952C110.765 34.5952 110.765 31.3076 113.456 31.3076C115.052 31.3076 116.196 32.6778 116.196 33.9102C116.196 37.9225 109.757 39.7912 105.743 39.7912C98.17 39.7912 94.4304 35.6231 93.3058 30.9451C92.2981 35.8494 89.0857 39.7912 83.3807 39.7912C80.3277 39.7912 78.0489 38.5597 76.8155 36.4166H76.7176V45.3136C76.7176 47.5048 75.3949 48.6493 73.3897 48.6493C71.3815 48.6493 70.0618 47.5045 70.0618 45.3136V20.4938L62.5743 41.7116C60.9808 46.2713 59.1489 48.6493 54.9508 48.6493C51.9863 48.6493 50.752 47.1914 50.752 45.5861C50.752 43.8036 52.0346 42.8939 53.8166 42.8939H54.5007C55.3623 42.8939 56.3205 42.8561 56.8212 40.7998L49.8913 21.0415C49.647 20.3267 49.4611 19.7892 49.3251 19.338C49.1676 19.5439 48.9924 19.7293 48.7847 19.9459L43.863 25.103L50.8023 34.4103C51.0269 34.7226 51.4864 35.4578 51.4864 36.5526C51.4864 38.2464 50.117 39.7912 48.3362 39.7912C46.6919 39.7912 45.8204 38.9711 45.3219 38.2464L39.0278 29.34L36.6993 31.3952V36.4647C36.6993 38.6484 35.3777 39.7912 33.3714 39.7912C31.3554 39.7912 30.0338 38.6484 30.0338 36.4647V34.0083C28.841 37.9424 24.3876 39.7912 20.0912 39.7912C14.0723 39.7912 9.05255 37.1008 9.05255 33.8129C9.05255 32.3551 9.87403 31.0338 11.7433 31.0338C14.62 31.0338 14.8952 35.1434 19.8171 35.1434C22.186 35.1434 23.693 34.0865 23.693 32.7267C23.693 31.0338 22.234 30.7602 19.8666 30.1628L15.9421 29.2126C12.0666 28.2552 9.05228 26.649 9.05228 22.1757C9.05228 16.7556 14.4348 14.7393 19.0432 14.7393C24.1025 14.7393 29.2212 16.7556 29.2212 19.8083C29.2212 21.3634 28.1645 22.7253 26.4329 22.7253C23.8292 22.7253 23.7408 19.671 19.5428 19.671C17.2143 19.671 15.7067 20.307 15.7067 21.7259C15.7067 23.2733 17.2143 23.6443 19.2689 24.0961L22.0478 24.741C25.2492 25.4652 28.9581 26.7277 30.0332 29.899V9.08323C30.0332 6.90091 31.3549 5.75614 33.3708 5.75614C35.3771 5.75614 36.6987 6.90091 36.6987 9.08323V24.231L44.0873 16.0209C44.7729 15.2873 45.6438 14.7393 46.6418 14.7393C47.728 14.7393 48.8822 15.4437 49.4409 16.4613C49.9792 15.4232 51.0559 14.7393 52.3082 14.7393C54.0887 14.7393 55.3222 15.7468 55.7229 17.2538L60.0192 32.8146H60.1079L64.1706 17.7147C64.6301 16.0209 65.5397 14.7393 67.37 14.7393C68.9455 14.7393 69.8554 15.521 70.3362 16.324C70.7355 15.2964 71.6271 14.7393 73.0654 14.7393C75.0324 14.7393 76.0794 15.8438 76.0794 17.8896V18.9371H76.1772C77.275 16.1104 79.9652 14.7393 83.1944 14.7393C87.9503 14.7393 92.1978 17.7243 93.3445 23.958C94.6349 18.3215 98.9705 14.7393 105.519 14.7393C113.182 14.7393 117.566 20.1705 117.566 25.6509C117.567 27.9313 116.881 28.5177 114.641 28.5177ZM119.152 15.991H117.9V19.417H116.97V15.991H115.717V15.2185H119.152V15.991H119.152ZM124.152 19.417H123.292C123.292 19.417 123.282 19.417 123.282 16.4414L122.253 19.417H121.539C121.539 19.417 121.529 19.417 120.502 16.4707V19.417H119.631V15.2185H120.933C120.933 15.2185 120.943 15.2185 121.932 18.1048L122.861 15.2185H124.152V19.417Z" fill="#686868"/>
</g>
</svg>
