<svg width="137" height="24" viewBox="0 0 137 24" fill="none" xmlns="http://www.w3.org/2000/svg">
<g id="nokia">
<g id="Group">
<path id="Vector" fill-rule="evenodd" clip-rule="evenodd" d="M25.1828 1.25787L25.1539 17.5197L11.948 1.23047H0.918568L0.833984 1.25787L0.89057 22.8935L7.25377 22.8361L7.28207 6.54625L20.5169 22.8938H31.546L31.5174 1.23076L25.1828 1.25787ZM95.967 1.23076L95.9101 1.28676L95.939 22.8935H102.699L102.643 1.25787C100.436 1.20188 98.2015 1.23076 95.967 1.23076ZM80.6394 11.75L93.0263 1.25787H84.0325L73.2017 11.043L72.3815 11.7212L72.3526 11.6929V1.25787H65.5945V22.8935H72.3526V11.8921L72.4107 11.8063L84.7955 22.8935L94.6095 22.8361L80.6677 11.8632L80.6394 11.75ZM55.046 1.00294L44.413 0.946655C41.8961 1.06012 39.2661 0.946657 37.0881 1.85202C35.759 2.55964 34.3735 3.94509 34.3169 5.52948L34.2603 17.9998L34.487 19.3575C34.9388 21.0253 36.7206 22.4108 38.389 22.666C42.1507 23.345 46.3074 23.0898 50.3515 23.1461C53.7737 23.0624 57.3371 23.3736 60.2781 22.1008C61.635 21.3368 62.7384 19.9517 62.823 18.3673L62.8513 6.60313C62.8799 5.66918 62.7098 4.84898 62.3706 4.08626C60.872 1.31446 57.8461 1.11612 55.046 1.00294ZM56.7716 16.8121C56.2063 17.8586 54.9617 17.6037 53.9152 17.6886L41.6978 17.6597C41.274 17.5197 40.6798 17.5763 40.4821 17.0384C40.3406 13.8434 40.4252 10.5623 40.4252 7.33874C40.5107 6.6886 41.2177 6.46196 41.7835 6.34968L55.7536 6.37738C56.1209 6.48967 56.5455 6.54655 56.7147 6.97123L56.8002 7.67884L56.7716 16.8121ZM124.615 1.25787H115.876L103.971 22.8935L111.521 22.8361L113.557 19.1601H126.82L126.962 19.2161C127.584 20.4604 128.263 21.6466 128.942 22.8935H136.407V22.8072L124.615 1.25787ZM116.045 14.409L120.202 6.6883C121.588 9.23405 122.975 11.8358 124.36 14.409H116.045Z" fill="#565656"/>
</g>
</g>
</svg>
